<?xml version="1.0" encoding="UTF-8"?>
<svg id="Layer_1" data-name="Layer 1" xmlns="http://www.w3.org/2000/svg" viewBox="0 0 1382.73 802.3">
  <defs>
    <style>
      .cls-1 {
        fill: #ff7f00;
      }

      .cls-1, .cls-2 {
        stroke-width: 0px;
      }

      .cls-2 {
        fill: #87aacd;
      }
    </style>
  </defs>
  <g>
    <path class="cls-1" d="m381.43,801.66c-11.95,0-22.5-2.43-31.64-7.28-9.15-4.85-16.24-13.25-21.28-25.2-5.04-11.94-7.56-28.74-7.56-50.4s1.3-45.26,3.92-69.72c2.61-24.45,5.88-49.46,9.8-75.04,3.92-25.57,7.74-50.12,11.48-73.64h-2.24c-11.95,50.03-24.92,86.34-38.92,108.92-14,22.59-29.59,33.88-46.76,33.88-10.46,0-20.07-4.01-28.84-12.04-8.78-8.02-17.18-22.86-25.2-44.52-8.03-21.65-16.52-52.26-25.48-91.84h-2.24c2.24,16.06,4.57,33.23,7,51.52,2.42,18.29,4.66,36.68,6.72,55.16,2.05,18.48,3.82,36.03,5.32,52.64,1.49,16.62,2.24,31.46,2.24,44.52,0,16.06-1.87,30.8-5.6,44.24-3.74,13.44-10.18,24.08-19.32,31.92-9.15,7.84-21.75,11.76-37.8,11.76-21.28,0-37.15-6.81-47.6-20.44-10.46-13.62-15.68-36.3-15.68-68.04,0-14.56.46-31.45,1.4-50.68.93-19.22,2.24-39.1,3.92-59.64,1.68-20.53,3.64-40.5,5.88-59.92,2.24-19.41,4.48-36.4,6.72-50.96,5.22-29.86,13.81-51.05,25.76-63.56,11.94-12.5,27.06-18.76,45.36-18.76,13.06,0,25.66,3.92,37.8,11.76,12.13,7.84,23.52,21.94,34.16,42.28,10.64,20.35,19.88,49.19,27.72,86.52h2.24c7.84-38.45,16.61-68.78,26.32-91,9.7-22.21,20.34-37.8,31.92-46.76,11.57-8.96,23.52-13.44,35.84-13.44,19.78,0,35.37,6.63,46.76,19.88,11.38,13.26,20.06,31.83,26.04,55.72,4.85,21.28,9.05,45.92,12.6,73.92,3.54,28,6.25,56.56,8.12,85.68,1.86,29.12,2.8,56.56,2.8,82.32,0,36.59-6.54,62.44-19.6,77.56-13.07,15.12-30.43,22.68-52.08,22.68Z"/>
    <path class="cls-1" d="m743.14,796.78c-19.04,0-31.74-4.95-38.08-14.84-6.35-9.89-9.52-25.66-9.52-47.32l8.4,2.8c-20.16,40.7-58.99,61.04-116.48,61.04-26.14,0-47.79-4.67-64.96-14-17.18-9.33-29.96-21.56-38.36-36.68s-12.6-31.82-12.6-50.12c0-31.36,11.38-56.18,34.16-74.48,22.77-18.29,53.01-27.44,90.72-27.44,23.52,0,44.14,3.55,61.88,10.64,17.73,7.1,32.57,16.99,44.52,29.68l-15.68-1.12c-.75-31.36-6.91-53.66-18.48-66.92-11.58-13.25-28.38-19.88-50.4-19.88-10.08,0-20.54,1.59-31.36,4.76-10.83,3.18-21.56,6.44-32.2,9.8s-21.38,5.04-32.2,5.04c-13.44,0-23.9-3.73-31.36-11.2-7.47-7.46-11.2-17.17-11.2-29.12,0-16.42,7.09-31.17,21.28-44.24,14.18-13.06,32.94-23.42,56.28-31.08,23.33-7.65,48.62-11.48,75.88-11.48,34.72,0,64.86,6.91,90.44,20.72,25.57,13.82,43.96,34.91,55.16,63.28,8.58,21.28,14.65,45.27,18.2,71.96,3.54,26.7,5.32,55.16,5.32,85.4s-1.96,53.67-5.88,70.28c-3.92,16.62-10.27,28.19-19.04,34.72-8.78,6.53-20.26,9.8-34.44,9.8Zm-113.12-76.72c8.58,0,17.36-1.4,26.32-4.2s16.52-6.81,22.68-12.04c6.16-5.22,9.24-11.76,9.24-19.6,0-7.09-2.43-12.97-7.28-17.64-4.86-4.66-11.39-8.02-19.6-10.08-8.22-2.05-16.99-3.08-26.32-3.08-16.43,0-29.31,3.18-38.64,9.52-9.34,6.35-14,14.56-14,24.64s4.29,17.55,12.88,23.52c8.58,5.98,20.16,8.96,34.72,8.96Z"/>
    <path class="cls-1" d="m828.66,564.3c0-41.44,4.94-71.3,14.84-89.6,9.89-18.29,23.61-27.44,41.16-27.44,12.32,0,22.12,4.02,29.4,12.04,7.28,8.03,12.5,17.92,15.68,29.68,3.17,11.76,4.76,23.62,4.76,35.56l-2.8-1.12c6.34-20.16,15.96-37.52,28.84-52.08,12.88-14.56,28.46-21.84,46.76-21.84,23.89,0,41.44,9.43,52.64,28.28,11.2,18.86,16.8,42.28,16.8,70.28,0,37.34-5.42,63.47-16.24,78.4-10.83,14.94-25.2,22.4-43.12,22.4-13.82,0-23.9-4.2-30.24-12.6-6.35-8.4-8.78-21.56-7.28-39.48.74-15.3,0-25.76-2.24-31.36s-5.79-8.4-10.64-8.4c-6.35,0-11.2,3.74-14.56,11.2-3.36,7.47-5.04,17.36-5.04,29.68,0,7.47.93,16.9,2.8,28.28,1.86,11.39,3.92,23.8,6.16,37.24,2.24,13.44,4.29,26.79,6.16,40.04,1.86,13.26,2.8,25.48,2.8,36.68,0,22.4-5.04,38.36-15.12,47.88-10.08,9.52-24.08,14.28-42,14.28s-31.74-4.66-42.56-14c-10.83-9.33-18.3-24.64-22.4-45.92-2.24-14.56-4.58-32.29-7-53.2-2.43-20.9-4.3-42.56-5.6-64.96-1.31-22.4-1.96-42.37-1.96-59.92Z"/>
    <path class="cls-1" d="m1193.45,455.89h-7.28c-1.5-16.42-.94-32.01,1.68-46.76,2.61-14.74,8.4-26.69,17.36-35.84,8.96-9.14,21.65-13.72,38.08-13.72s28.46,4.02,36.12,12.04c7.65,8.03,11.48,19.32,11.48,33.88,0,20.54-4.48,38.08-13.44,52.64l-5.6-1.12c14.93-7.09,31.36-10.64,49.28-10.64s33.6,4.2,44.8,12.6c11.2,8.4,16.8,22.68,16.8,42.84,0,18.67-6.44,32.95-19.32,42.84-12.88,9.9-29.03,14.84-48.44,14.84-7.84,0-16.15-.46-24.92-1.4-8.78-.93-17.46-2.52-26.04-4.76l4.48-7.84c4.48,11.95,8.86,25.48,13.16,40.6,4.29,15.12,8.02,30.71,11.2,46.76,3.17,16.06,5.78,31.83,7.84,47.32,2.05,15.5,3.08,29.22,3.08,41.16,0,23.9-5.42,42.75-16.24,56.56-10.83,13.82-27.07,20.72-48.72,20.72-14.19,0-25.86-2.9-35-8.68-9.15-5.78-16.34-13.53-21.56-23.24-5.23-9.7-8.87-20.9-10.92-33.6-2.06-12.69-3.08-25.76-3.08-39.2s.93-29.21,2.8-46.2c1.86-16.98,4.76-34.72,8.68-53.2s8.3-36.12,13.16-52.92l7.28,12.88c-13.82,9.71-31.18,14.56-52.08,14.56-19.42,0-34.63-4.66-45.64-14-11.02-9.33-16.52-23.52-16.52-42.56,0-20.16,5.97-35.74,17.92-46.76,11.94-11.01,28-16.52,48.16-16.52,8.21,0,15.86.66,22.96,1.96,7.09,1.31,13.25,2.9,18.48,4.76Z"/>
  </g>
  <g>
    <path class="cls-2" d="m0,0h196.15v24.52h24.52v24.52h24.52v147.11h-24.52v24.52h-24.52v24.52h-122.59v122.59H0V0Zm158.11,147.11h24.52v-49.04h-24.52v-24.52h-73.56v98.07h73.56v-24.52Z"/>
    <path class="cls-2" d="m275.22,0h73.56v73.56h-73.56V0Zm0,122.59h73.56v245.18h-73.56V122.59Z"/>
    <path class="cls-2" d="m375.81,290.22h24.52v-24.52h24.52v-24.52h24.52v-24.52h-24.52v-24.52h-24.52v-24.52h-24.52v-73.56h73.56v49.04h24.52v24.52h49.04v-24.52h24.52v-49.04h73.56v73.56h-24.52v24.52h-24.52v24.52h-24.52v24.52h24.52v24.52h24.52v24.52h24.52v73.56h-73.56v-49.04h-24.52v-24.52h-49.04v24.52h-24.52v49.04h-73.56v-73.56Z"/>
    <path class="cls-2" d="m672.55,318.74h-24.52v-171.63h24.52v-24.52h24.52v-24.52h147.11v24.52h24.52v24.52h24.52v122.59h-171.63v24.52h171.63v24.52h-24.52v24.52h-24.52v24.52h-147.11v-24.52h-24.52v-24.52Zm49.04-98.07h98.07v-49.04h-98.07v49.04Z"/>
    <path class="cls-2" d="m924.25,0h73.55v367.78h-73.55V0Z"/>
  </g>
</svg>